<?xml version="1.0" encoding="UTF-8"?>
<svg width="90px" height="90px" viewBox="0 0 90 90" version="1.1" xmlns="http://www.w3.org/2000/svg" xmlns:xlink="http://www.w3.org/1999/xlink">
    <!-- Generator: Sketch 52.2 (67145) - http://www.bohemiancoding.com/sketch -->
    <title>financial-reports-red</title>
    <desc>Created with Sketch.</desc>
    <defs>
        <polygon id="path-1" points="0.6396 0.948 55.3896 0.948 55.3896 55.6978 0.6396 55.6978"></polygon>
    </defs>
    <g id="financial-reports-red" stroke="none" stroke-width="1" fill="none" fill-rule="evenodd">
        <g id="Group-19" transform="translate(11.000000, 15.000000)">
            <g id="Group-3" transform="translate(4.000000, 0.052200)">
                <mask id="mask-2" fill="white">
                    <use xlink:href="#path-1"></use>
                </mask>
                <g id="Clip-2"></g>
                <path d="M55.3896,28.3228 C55.3896,43.4418 43.1326,55.6978 28.0146,55.6978 C12.8956,55.6978 0.6396,43.4418 0.6396,28.3228 C0.6396,13.2038 12.8956,0.9478 28.0146,0.9478 C43.1326,0.9478 55.3896,13.2038 55.3896,28.3228" id="Fill-1" fill="#FAE7E6" mask="url(#mask-2)"></path>
            </g>
            <polygon id="Fill-4" fill="#BEC0CC" points="63.234 14.8442 65.171 14.8442 65.171 8.8752 63.234 8.8752"></polygon>
            <polygon id="Fill-6" fill="#BEC0CC" points="61.233 12.8132 67.233 12.8132 67.233 10.8442 61.233 10.8442"></polygon>
            <polygon id="Fill-7" fill="#BEC0CC" points="2.001 41.3282 3.938 41.3282 3.938 35.3592 2.001 35.3592"></polygon>
            <polygon id="Fill-8" fill="#BEC0CC" points="0 39.2972 6 39.2972 6 37.3282 0 37.3282"></polygon>
        </g>
        <g id="noun_DATA-REPRESENTATION_1666118" transform="translate(17.000000, 18.000000)" fill="#D51709" fill-rule="nonzero">
            <g id="Group">
                <path d="M52.81675,4.07084044 L30.246125,4.07084044 L30.246125,2.25299962 C30.246125,1.01069142 29.239,0 28,0 C26.761,0 25.753,1.01069142 25.753,2.25299962 L25.753,4.07171778 L3.18325,4.07171778 C1.428,4.07084044 0,5.50265329 0,7.26258991 C0,8.93128355 1.288,10.2894001 2.91725,10.4280193 L2.91725,40.3618566 C2.91725,40.7250738 3.21125,41.0198588 3.5735,41.0198588 L26.46175,41.0198588 L13.21075,54.886159 C12.9605,55.1484826 12.96925,55.5652173 13.230875,55.8170129 C13.49425,56.0696857 13.908125,56.0582803 14.15925,55.7977115 L27.34375,41.9998434 L27.34375,53.5613812 C27.34375,53.9245985 27.63775,54.2193835 28,54.2193835 C28.36225,54.2193835 28.65625,53.9245985 28.65625,53.5613812 L28.65625,42.1393399 L41.70775,55.7968341 C41.957125,56.057403 42.371875,56.0696857 42.636125,55.8161355 C42.898625,55.56434 42.9065,55.1484826 42.65625,54.8852817 L29.40525,41.0189815 L52.4265,41.0189815 C52.78875,41.0189815 53.08275,40.7241965 53.08275,40.3609792 L53.08275,10.4271419 C54.712,10.2894001 56,8.93128355 56,7.26258991 C56,5.50265329 54.572,4.07084044 52.81675,4.07084044 Z M27.0655,2.25299962 C27.0655,1.73624854 27.484625,1.31600445 28,1.31600445 C28.515375,1.31600445 28.933625,1.73624854 28.933625,2.25299962 L28.933625,4.07171778 L27.064625,4.07171778 L27.064625,2.25299962 L27.0655,2.25299962 Z M51.77025,39.702977 L27.881875,39.702977 C27.881,39.702977 27.881,39.702977 27.880125,39.702977 L4.22975,39.702977 L4.22975,10.4543394 L51.77025,10.4543394 L51.77025,39.702977 Z M52.81675,9.13833492 C44.785125,9.13833492 6.62375,9.13833492 3.182375,9.13833492 C2.15075,9.13833492 1.311625,8.29696941 1.311625,7.26258991 C1.311625,6.22821041 2.15075,5.38684489 3.182375,5.38684489 C13.7095,5.38684489 42.4445,5.38684489 52.81675,5.38684489 C53.848375,5.38684489 54.6875,6.22821041 54.6875,7.26258991 C54.6875,8.29696941 53.848375,9.13833492 52.81675,9.13833492 Z" id="Shape" stroke="#FFFFFF" stroke-width="0.3"></path>
                <path d="M39.5,35 C44.7382761,35 49,30.738476 49,25.5004455 C49,25.1315826 48.700619,24.8322157 48.3317389,24.8322157 L40.1682611,24.8322157 L40.1682611,16.6682298 C40.1682611,16.2993669 39.8688801,16 39.5,16 C34.2617239,16 30,20.261524 30,25.5004455 C30,30.738476 34.2617239,35 39.5,35 Z M38.8317389,17.3631887 L38.8317389,25.4995545 C38.8317389,25.8684174 39.1311199,26.1677843 39.5,26.1677843 L47.6367473,26.1677843 C47.2954887,30.3580305 43.7768711,33.6626495 39.5,33.6626495 C34.9985931,33.6626495 31.3365222,30.0007503 31.3365222,25.4995545 C31.3365222,21.2237749 34.6421872,17.7044314 38.8317389,17.3631887 Z" id="Shape" stroke="#FFFFFF" stroke-width="0.3"></path>
                <path d="M41.6805961,24 L49.3005502,24 C49.3069024,24 49.3141621,24 49.3186994,24 C49.8041913,24 50.1290625,23.5061943 49.9502926,23.0633151 C49.2842159,18.9091629 45.9447576,15.6071212 41.776787,15.0069153 C41.3684294,14.9487135 41,15.2651857 41,15.6816922 L41,23.3179479 C41,23.6944406 41.3049071,24 41.6805961,24 Z M42.3611922,16.50743 C45.3630748,17.2422275 47.7442537,19.6275911 48.4765752,22.6358957 L42.3611922,22.6358957 L42.3611922,16.50743 Z" id="Shape" stroke="#FFFFFF" stroke-width="0.3"></path>
                <path d="M7.5,37 C7.776,37 8,36.7097443 8,36.3521078 L8,22.6478922 C8,22.2902557 7.776,22 7.5,22 C7.224,22 7,22.2902557 7,22.6478922 L7,36.3521078 C7,36.7097443 7.224,37 7.5,37 Z" id="Shape"></path>
                <path d="M12.5,22 C12.224,22 12,22.2927467 12,22.6534524 L12,37.3465476 C12,37.7072533 12.224,38 12.5,38 C12.776,38 13,37.7072533 13,37.3465476 L13,22.6534524 C13,22.2927467 12.776,22 12.5,22 Z" id="Shape"></path>
                <path d="M17.5,21 C17.224,21 17,21.2949804 17,21.6584383 L17,37.3415617 C17,37.7050196 17.224,38 17.5,38 C17.776,38 18,37.7050196 18,37.3415617 L18,21.6584383 C18,21.2949804 17.776,21 17.5,21 Z" id="Shape"></path>
                <path d="M21.5,20 C21.224,20 21,20.2969947 21,20.6629346 L21,37.3370654 C21,37.7030053 21.224,38 21.5,38 C21.776,38 22,37.7030053 22,37.3370654 L22,20.6629346 C22,20.2969947 21.776,20 21.5,20 Z" id="Shape"></path>
                <path d="M26.5,19 C26.224,19 26,19.2988204 26,19.6670099 L26,37.3329901 C26,37.7011796 26.224,38 26.5,38 C26.776,38 27,37.7011796 27,37.3329901 L27,19.6670099 C27,19.2988204 26.776,19 26.5,19 Z" id="Shape"></path>
                <path d="M7.64430687,20 C7.68299058,20 7.72253393,19.9962907 7.76207728,19.9888722 L25.121609,16.5494679 L24.0547981,18.6016118 C23.8811512,18.9363718 23.9911849,19.3601539 24.3015142,19.5483985 C24.6127032,19.7357158 25.0055578,19.6170197 25.1792047,19.2813323 L26.8838671,16.0023531 C26.895902,15.9847342 26.9019195,15.9652606 26.9122351,15.9476416 L26.926849,15.9207496 C26.9320068,15.9114764 26.9311472,15.9003487 26.9354454,15.8910755 C26.9629538,15.8280182 26.9853044,15.7640336 26.9947604,15.6935578 C27.0024971,15.6444102 26.9990586,15.5980446 26.9973393,15.548897 C26.99562,15.5220049 27.0033568,15.4978948 26.9981989,15.4710027 C26.9964797,15.4617296 26.9913218,15.4552384 26.9887429,15.4468925 C26.9741291,15.3680709 26.945761,15.2957405 26.9070773,15.226192 C26.9044984,15.2215555 26.9027791,15.2169189 26.9002002,15.2122823 C26.8451834,15.1176964 26.7755527,15.0323836 26.6792732,14.9739629 L23.5630851,13.0887353 C23.2527558,12.901418 22.8599011,13.0201141 22.6853946,13.3558014 C22.5117477,13.6905615 22.6217814,14.1143436 22.9321107,14.3025881 L24.5095467,15.2567934 L7.52825572,18.6210854 C7.17838302,18.6906339 6.94628073,19.0532133 7.01075359,19.4315571 C7.06834934,19.7653898 7.33913534,20 7.64430687,20 Z" id="Shape" stroke="#FFFFFF" stroke-width="0.3"></path>
            </g>
        </g>
    </g>
</svg>