<?xml version="1.0" encoding="UTF-8"?>
<svg width="90px" height="90px" viewBox="0 0 90 90" version="1.1" xmlns="http://www.w3.org/2000/svg" xmlns:xlink="http://www.w3.org/1999/xlink">
    <!-- Generator: Sketch 52.2 (67145) - http://www.bohemiancoding.com/sketch -->
    <title>news-red</title>
    <desc>Created with Sketch.</desc>
    <g id="news-red" stroke="none" stroke-width="1" fill="none" fill-rule="evenodd">
        <g id="news-1" transform="translate(13.000000, 15.000000)">
            <g id="Group-3" transform="translate(0.000000, 0.601300)" fill="#FAE7E6">
                <path d="M54.7,27.8 C54.7,42.9 42.4,55.2 27.3,55.2 C12.3,55.1 0,42.9 0,27.8 C0,12.7 12.3,0.4 27.4,0.4 C42.5,0.4 54.7,12.7 54.7,27.8" id="Fill-1"></path>
            </g>
            <polygon id="Fill-4" fill="#BEC0CC" points="58.6 14.8 60.5 14.8 60.5 8.9 58.6 8.9"></polygon>
            <polygon id="Fill-6" fill="#BEC0CC" points="56.6 12.8 62.6 12.8 62.6 10.8 56.6 10.8"></polygon>
            <polygon id="Fill-7" fill="#BEC0CC" points="5.7 40.7 7.6 40.7 7.6 34.7 5.7 34.7"></polygon>
            <polygon id="Fill-8" fill="#BEC0CC" points="3.7 38.7 9.7 38.7 9.7 36.7 3.7 36.7"></polygon>
            <path d="M34.3,50.5 L27,50.5 C25.4,50.5 24.6,48.9 24.3,48.2 L1.6,48.2 L1.6,11.3 L9.4,11.3 L9.4,12.3 L2.6,12.3 L2.6,47.1 L25,47.1 L25.1,47.5 C25.1,47.5 25.7,49.5 27,49.5 L34.3,49.5 C35.6,49.5 36.1,47.5 36.2,47.5 L36.3,47.1 L58.7,47.1 L58.7,12.3 L51.9,12.3 L51.9,11.3 L59.7,11.3 L59.7,48.1 L37,48.1 C36.7,48.9 35.9,50.5 34.3,50.5" id="Fill-9" fill="#D51709"></path>
            <path d="M30.7,12.1 C30.7,12.1 32.1,9.6 34.9,9 C37.7,8.4 54.5,9 54.5,9 L54.5,43 L35.3,43 C35.3,43 33.1,43.9 32.7,45.5 L30.7,45.5" id="Fill-10" fill="#FEFEFE"></path>
            <path d="M33.1,46 L30.7,46 L30.7,45 L32.3,45 C32.9,43.4 35,42.6 35.1,42.5 L35.3,42.5 L54.1,42.5 L54.1,9.5 C51.3,9.4 37.6,9 35.1,9.5 C32.5,10.1 31.2,12.4 31.2,12.4 L30.3,11.9 C30.4,11.8 31.8,9.2 34.9,8.5 C37.8,7.9 54,8.5 54.7,8.5 L55.2,8.5 L55.2,43.5 L35.4,43.5 C35,43.7 33.4,44.4 33.2,45.6 L33.1,46 Z" id="Fill-11" fill="#D51709"></path>
            <path d="M30.7,12.1 C30.7,12.1 29.3,9.6 26.5,9 C23.7,8.4 6.8,9 6.8,9 L6.8,43 L26,43 C26,43 28.2,43.9 28.6,45.5 L30.6,45.5" id="Fill-12" fill="#FEFEFE"></path>
            <rect id="Rectangle-21" fill="#FFFFFF" x="7" y="9" width="17" height="34"></rect>
            <path d="M30.7,46 L28.3,46 L28.2,45.6 C27.9,44.4 26.3,43.7 26,43.5 L6.3,43.5 L6.3,8.5 L6.8,8.5 C7.5,8.5 23.6,7.9 26.6,8.5 C29.7,9.2 31.1,11.8 31.2,11.9 L30.3,12.4 C30.3,12.4 29,10.1 26.4,9.5 C23.9,9 10.1,9.4 7.4,9.5 L7.4,42.5 L26.3,42.5 C26.4,42.5 28.5,43.4 29.1,45 L30.7,45 L30.7,46 Z" id="Fill-13" fill="#D51709"></path>
            <path d="M30.7,30.6 L30.7,45.1 C19.5,39.1 11.1,38 11.1,38 L11.1,2.6 C11.1,2.6 29.7,4.9 30.7,12.9 L30.7,30.6 Z" id="Fill-14" fill="#FEFEFE"></path>
            <path d="M11.6,37.6 C13.4,37.9 20.8,39.4 30.2,44.3 L30.2,12.9 C29.3,6.2 14.6,3.6 11.6,3.2 L11.6,37.6 Z M31.2,46 L30.5,45.6 C19.5,39.7 11.1,38.5 11,38.5 L10.6,38.4 L10.6,2 L11.2,2.1 C12,2.2 30.2,4.6 31.3,12.8 L31.2,46 Z" id="Fill-15" fill="#D51709" fill-rule="nonzero"></path>
            <polygon id="Fill-16" fill="#FEFEFE" points="44.7 32.4 44.7 54.9 50.2 50 55.8 59.9 60.8 56.5 54.6 47.8 63.6 47.4"></polygon>
            <path d="M50.3,49.2 L56,59.1 L60.1,56.3 L53.6,47.2 L62.2,46.8 L45.2,33.3 L45.2,53.7 L50.3,49.2 Z M55.6,60.6 L50,50.8 L44.2,56 L44.2,31.3 L64.9,47.8 L55.5,48.2 L61.5,56.6 L55.6,60.6 Z" id="Fill-17" fill="#D51709" fill-rule="nonzero"></path>
            <path d="M35.7,37.4 C35.9,37.3 38.5,36 38.5,36" id="Fill-18" fill="#FEFEFE"></path>
            <path d="M35.8,37.9 L35.5,37 L35.7,37.5 L35.5,37 C35.7,36.9 37,36.3 38.3,35.6 L38.7,36.5 C37.7,37 36,37.9 35.8,37.9" id="Fill-19" fill="#BEC0CC"></path>
            <path d="M38.5,32.9 L34.5,32.9" id="Fill-20" fill="#FEFEFE"></path>
            <polygon id="Fill-21" fill="#BEC0CC" points="34.5 33.4 38.5 33.4 38.5 32.4 34.5 32.4"></polygon>
            <path d="M38.5,29.9 L35.7,28" id="Fill-22" fill="#FEFEFE"></path>
            <polygon id="Fill-23" fill="#BEC0CC" points="38.2 30.3 35.4 28.4 36 27.5 38.8 29.5"></polygon>
            <path d="M40.8,27.9 L38.9,24.5" id="Fill-24" fill="#FEFEFE"></path>
            <polygon id="Fill-25" fill="#BEC0CC" points="40.4 28.2 38.4 24.8 39.3 24.3 41.2 27.7"></polygon>
            <path d="M43.3,27.4 L43.3,23.7" id="Fill-26" fill="#FEFEFE"></path>
            <polygon id="Fill-27" fill="#BEC0CC" points="42.8 27.4 43.8 27.4 43.8 23.7 42.8 23.7"></polygon>
            <path d="M46.4,27.9 L48.2,25.1" id="Fill-28" fill="#FEFEFE"></path>
            <polygon id="Fill-29" fill="#BEC0CC" points="46.8 28.2 46 27.7 47.8 24.9 48.6 25.5"></polygon>
        </g>
    </g>
</svg>