<?xml version="1.0" encoding="UTF-8"?>
<svg width="36px" height="36px" viewBox="0 0 36 36" version="1.1" xmlns="http://www.w3.org/2000/svg" xmlns:xlink="http://www.w3.org/1999/xlink">
    <!-- Generator: Sketch 50.2 (55047) - http://www.bohemiancoding.com/sketch -->
    <title>LinkedIn</title>
    <desc>Created with Sketch.</desc>
    <defs></defs>
    <g id="Page-1" stroke="none" stroke-width="1" fill="none" fill-rule="evenodd">
        <g id="Sign-in" transform="translate(-490.000000, -280.000000)" fill="#757575" fill-rule="nonzero">
            <g id="uba-linkedin" transform="translate(487.000000, 278.000000)">
                <path d="M15.6868836,21.0046573 C15.6868836,17.9535741 15.5875331,15.4038927 15.4881822,13.2027033 L21.998572,13.2027033 L22.3457149,16.6046492 L22.4941564,16.6046492 C23.4794811,15.0032454 25.896624,12.6538876 29.9407796,12.6538876 C34.8720785,12.6538876 38.5714291,16.0048636 38.5714291,23.207032 L38.5714291,37.6623385 L31.0745458,37.6623385 L31.0745458,24.1078957 C31.0745458,20.9572434 29.9875331,18.8058386 27.2758447,18.8058386 C25.2058447,18.8058386 23.9738967,20.255518 23.4303902,21.6565981 C23.2328578,22.1568145 23.1837669,22.8561693 23.1837669,23.5567093 L23.1837669,37.6623385 L15.6868836,37.6623385 L15.6868836,21.0046573 Z M3.70519527,37.659968 L11.2020785,37.659968 L11.2020785,13.2027033 L3.70519527,13.2027033 L3.70519527,37.659968 Z M11.446364,6.39999684 C11.446364,8.49924636 9.916364,10.2002193 7.40220836,10.2002193 C5.03532509,10.2002193 3.50649418,8.49924636 3.50649418,6.39999684 C3.50649418,4.24977735 5.08558509,2.59740364 7.50155891,2.59740364 C9.916364,2.59740364 11.3972731,4.24977735 11.446364,6.39999684 Z" id="Fill-14"></path>
            </g>
        </g>
    </g>
</svg>