<?xml version="1.0" encoding="UTF-8"?>
<svg width="41px" height="40px" viewBox="0 0 41 40" version="1.1" xmlns="http://www.w3.org/2000/svg" xmlns:xlink="http://www.w3.org/1999/xlink">
    <!-- Generator: Sketch 51.3 (57544) - http://www.bohemiancoding.com/sketch -->
    <title>Instagram</title>
    <desc>Created with Sketch.</desc>
    <defs></defs>
    <g id="Welcome" stroke="none" stroke-width="1" fill="none" fill-rule="evenodd">
        <g id="Desktop" transform="translate(-105.000000, -32.000000)" fill="#757575" fill-rule="nonzero">
            <g id="Social-Icons" transform="translate(43.000000, 32.000000)">
                <g id="uba-instagram" transform="translate(62.857143, 0.000000)">
                    <path d="M20,0 C14.56875,0 13.8875,0.02375 11.75375,0.12 C9.625,0.2175 8.17125,0.55625 6.9,1.05 C5.58375,1.56125 4.46875,2.245 3.3575,3.3575 C2.245,4.46875 1.56125,5.58375 1.05,6.9 C0.555,8.17125 0.2175,9.625 0.12,11.75375 C0.0225,13.8875 0,14.56875 0,20 C0,25.4325 0.0225,26.11375 0.12,28.24625 C0.2175,30.375 0.555,31.82875 1.05,33.10125 C1.56125,34.41625 2.245,35.53125 3.3575,36.64375 C4.46875,37.755 5.58375,38.43875 6.9,38.95 C8.17125,39.445 9.625,39.7825 11.75375,39.88 C13.8875,39.9775 14.56875,40 20,40 C25.43125,40 26.1125,39.9775 28.24625,39.88 C30.375,39.7825 31.82875,39.445 33.1,38.95 C34.41625,38.43875 35.53125,37.755 36.6425,36.64375 C37.755,35.53125 38.43875,34.41625 38.95,33.10125 C39.445,31.82875 39.7825,30.375 39.88,28.24625 C39.9775,26.11375 40,25.4325 40,20 C40,14.56875 39.9775,13.8875 39.88,11.75375 C39.7825,9.625 39.445,8.17125 38.95,6.9 C38.43875,5.58375 37.755,4.46875 36.6425,3.3575 C35.53125,2.245 34.41625,1.56125 33.1,1.05 C31.82875,0.55625 30.375,0.2175 28.24625,0.12 C26.1125,0.02375 25.43125,0 20,0 M20,3.60375 C25.34,3.60375 25.9725,3.62375 28.08125,3.72 C30.03125,3.80875 31.09125,4.135 31.79625,4.40875 C32.72875,4.77125 33.395,5.205 34.095,5.905 C34.795,6.605 35.22875,7.27125 35.59125,8.20375 C35.865,8.90875 36.19125,9.96875 36.28,11.91875 C36.37625,14.0275 36.39625,14.66 36.39625,20 C36.39625,25.34 36.37625,25.9725 36.28,28.08125 C36.19125,30.03125 35.865,31.09125 35.59125,31.79625 C35.22875,32.72875 34.795,33.395 34.095,34.095 C33.395,34.795 32.72875,35.22875 31.79625,35.59125 C31.09125,35.865 30.03125,36.19125 28.08125,36.28 C25.9725,36.37625 25.34,36.39625 20,36.39625 C14.66,36.39625 14.0275,36.37625 11.91875,36.28 C9.96875,36.19125 8.90875,35.865 8.20375,35.59125 C7.27125,35.22875 6.605,34.795 5.905,34.095 C5.205,33.395 4.77125,32.72875 4.40875,31.79625 C4.135,31.09125 3.80875,30.03125 3.72,28.08125 C3.62375,25.9725 3.60375,25.34 3.60375,20 C3.60375,14.66 3.62375,14.0275 3.72,11.91875 C3.80875,9.96875 4.135,8.90875 4.40875,8.20375 C4.77125,7.27125 5.205,6.605 5.905,5.905 C6.605,5.205 7.27125,4.77125 8.20375,4.40875 C8.90875,4.135 9.96875,3.80875 11.91875,3.72 C14.0275,3.62375 14.66,3.60375 20,3.60375" id="Fill-6"></path>
                    <path d="M20,26.4912067 C16.4155307,26.4912067 13.5090068,23.5848597 13.5090068,20.0006085 C13.5090068,16.4151403 16.4155307,13.5087933 20,13.5087933 C23.5844693,13.5087933 26.4909933,16.4151403 26.4909933,20.0006085 C26.4909933,23.5848597 23.5844693,26.4912067 20,26.4912067 M20,10 C14.476631,10 10,14.4775756 10,20.0006085 C10,25.5236415 14.476631,30 20,30 C25.523369,30 30,25.5236415 30,20.0006085 C30,14.4775756 25.523369,10 20,10" id="Fill-9"></path>
                    <path d="M33.75,10 C33.75,11.3802083 32.6302082,12.5 31.25,12.5 C29.8697918,12.5 28.75,11.3802083 28.75,10 C28.75,8.61848957 29.8697918,7.5 31.25,7.5 C32.6302082,7.5 33.75,8.61848957 33.75,10" id="Fill-11"></path>
                </g>
            </g>
        </g>
    </g>
</svg>