<?xml version="1.0" encoding="UTF-8"?>
<svg width="57px" height="40px" viewBox="0 0 57 40" version="1.1" xmlns="http://www.w3.org/2000/svg" xmlns:xlink="http://www.w3.org/1999/xlink">
    <!-- Generator: Sketch 51.3 (57544) - http://www.bohemiancoding.com/sketch -->
    <title>youtube-symbol</title>
    <desc>Created with Sketch.</desc>
    <defs></defs>
    <g id="Welcome" stroke="none" stroke-width="1" fill="none" fill-rule="evenodd">
        <g id="Desktop" transform="translate(-467.000000, -242.000000)" fill-rule="nonzero">
            <g id="youtube-symbol" transform="translate(467.000000, 242.000000)">
                <path d="M55.6538776,33.6236735 C54.9632653,36.6195918 52.5126531,38.8293878 49.5632653,39.1583673 C42.5779592,39.9395918 35.5085714,39.9436735 28.4677551,39.9395918 C21.4269388,39.9436735 14.3559184,39.9395918 7.36897959,39.1583673 C4.41959184,38.8293878 1.97061224,36.6195918 1.28163265,33.6236735 C0.299591837,29.3559184 0.299591837,24.6987755 0.299591837,20.3061224 C0.299591837,15.9134694 0.311020408,11.2546939 1.29306122,6.98857143 C1.98204082,3.99265306 4.43102041,1.78204082 7.38040816,1.4522449 C14.3673469,0.671836735 21.4383673,0.667755102 28.4791837,0.671836735 C35.5183673,0.667755102 42.5893878,0.671836735 49.5738776,1.4522449 C52.524898,1.78204082 54.9755102,3.99183673 55.6644898,6.98857143 C56.6465306,11.2555102 56.6383673,15.9134694 56.6383673,20.3061224 C56.6383673,24.6987755 56.6359184,29.3567347 55.6538776,33.6236735 Z" id="Shape" fill="#757575"></path>
                <path d="M21.1991837,29.0506122 C27.1861224,25.9461224 33.1208163,22.8702041 39.1102041,19.7640816 C33.1028571,16.6293878 27.1697959,13.5355102 21.1991837,10.4195918 C21.1991837,16.6514286 21.1991837,22.8195918 21.1991837,29.0506122 Z" id="Shape" fill="#FFFFFF"></path>
            </g>
        </g>
    </g>
</svg>