<?xml version="1.0" encoding="UTF-8"?>
<svg width="71px" height="24px" viewBox="0 0 71 24" version="1.1" xmlns="http://www.w3.org/2000/svg" xmlns:xlink="http://www.w3.org/1999/xlink">
    <!-- Generator: Sketch 50.2 (55047) - http://www.bohemiancoding.com/sketch -->
    <title>UBA Logo</title>
    <desc>Created with Sketch.</desc>
    <defs></defs>
    <g id="Page-1" stroke="none" stroke-width="1" fill="none" fill-rule="evenodd">
        <g id="Global-site" transform="translate(-1194.000000, -4848.000000)" fill="#FFFFFF">
            <g id="Footer" transform="translate(0.000000, 4460.000000)">
                <g id="UBA-Logo" transform="translate(1194.000000, 388.000000)">
                    <g id="symbol" transform="translate(50.000000, 0.000000)">
                        <path d="M0.344727273,23.6603948 C1.74981818,17.1068364 3.15033766,10.5749922 4.55636364,4.01686234 C4.58919481,4.07691429 4.60966234,4.11213506 4.62805195,4.14839481 C6.76114286,8.36117403 8.90607792,12.5680312 11.0187013,16.7910961 C11.5397403,17.8324468 11.8588052,18.9499532 11.8086234,20.1387325 C11.7624935,21.2307844 11.2759481,22.0740052 10.353974,22.6622649 C9.69963636,23.0797195 8.97153247,23.3016416 8.21724675,23.4466805 C7.4158961,23.6008623 6.60623377,23.6644468 5.78961039,23.6620571 C4.03625974,23.6567584 2.28280519,23.6603948 0.529454545,23.6603948 L0.344727273,23.6603948 Z" id="Fill-1"></path>
                        <path d="M20.9346182,0.00222337662 C19.5294234,6.55650909 18.1299429,13.0840935 16.7239169,19.6419117 C16.6897351,19.5824831 16.6689558,19.5498597 16.6516052,19.5154701 C14.5187221,15.3027948 12.375761,11.0950026 10.2610597,6.87308052 C9.76796883,5.88866494 9.46448831,4.83235325 9.46511169,3.71245714 C9.46604675,2.42279481 10.0417351,1.47328831 11.1701506,0.855522078 C11.8036052,0.508716883 12.4890078,0.317236364 13.1945662,0.190794805 C13.9856312,0.0491844156 14.7836571,-0.00297142857 15.5873974,0.000145454545 C17.3076052,0.0068987013 19.0277091,0.00222337662 20.747813,0.00222337662 L20.9346182,0.00222337662 Z" id="Fill-3"></path>
                    </g>
                    <path d="M38.3305307,12.8653377 C37.218158,14.5525535 36.1266519,16.2083122 35.0269629,17.8763494 L39.554294,17.8763494 C39.1471912,16.2095299 38.7432593,14.5551918 38.3305307,12.8653377 M44,22.9940106 L40.7147416,22.9940106 C40.6643141,22.7557486 40.6130682,22.515863 40.5629475,22.2757744 C40.4161655,21.5736727 40.268156,20.8716724 40.124954,20.1688603 C40.1095086,20.0929574 40.0804591,20.0709374 40.0046643,20.0709374 C37.9264965,20.0728655 35.8482263,20.0717492 33.7700585,20.0765185 C33.7196309,20.07662 33.6519169,20.1250233 33.6215376,20.1702809 C33.0107811,21.0775641 32.4034,21.9871811 31.798883,22.8986247 C31.7507058,22.9711789 31.7025285,23.0003021 31.6134364,22.9999976 C30.7870586,22.9962431 29.9606808,22.9977652 29.134303,22.9977652 L29,22.9977652 C29.0387668,22.9380982 29.0673049,22.8918259 29.0979911,22.8469742 C32.1940182,18.3183721 35.2901477,13.789973 38.3862772,9.26147237 C38.6524283,8.87211488 38.9208298,8.48407656 39.1835031,8.09238515 C39.2299415,8.0230781 39.2793462,7.9988257 39.3617896,8.0000434 C39.6846078,8.00471122 40.0075283,8.00197141 40.3391432,8.00197141 C41.5590197,12.9981678 42.7778732,17.989189 44,22.9940106" id="Fill-10"></path>
                    <path d="M20.87887,14.617978 C20.9149339,14.6217167 20.9388057,14.626365 20.9626775,14.626365 C21.650965,14.6267692 22.3392524,14.6269713 23.0274374,14.6261629 C23.0593007,14.6260618 23.0937253,14.622222 23.1226174,14.6100962 C23.7147003,14.36081 24.2955133,14.0906069 24.8045059,13.6936892 C25.242805,13.3520449 25.5771132,12.9368374 25.7126601,12.3912777 C25.7601989,12.2000943 25.7784357,12.0019386 25.8188027,11.8088353 C25.9509686,11.1761719 25.753232,10.6360688 25.2465958,10.2962433 C24.8247918,10.0133081 24.3484822,9.88457259 23.8432804,9.88790718 C23.2166704,9.89225226 22.5903677,9.92580029 21.9637577,9.93347996 C21.8201169,9.93519778 21.782926,9.98491355 21.7593615,10.1125375 C21.6309864,10.8027985 21.4927757,11.4913416 21.3576386,12.1803899 C21.1991419,12.9880689 21.0403378,13.7956469 20.87887,14.617978 M19.4212538,21.1902602 L19.5527025,21.1902602 C20.2448833,21.1903613 20.9369615,21.1923822 21.6291422,21.1895529 C22.0113989,21.1880372 22.3879182,21.1379172 22.7570607,21.0378794 C23.8087533,20.7530243 24.5667096,20.1000502 25.1336913,19.2028423 C25.2851186,18.9631558 25.4066293,18.7171032 25.4224073,18.4298229 C25.4270177,18.3452454 25.4401319,18.2610722 25.4445374,18.1764948 C25.4818307,17.4707735 25.3067365,16.8414447 24.7304315,16.3784414 C24.1114031,15.8809806 23.3680977,15.6926266 22.5941585,15.6613016 C21.9615037,15.6356354 21.3255704,15.6923234 20.6910714,15.7078849 C20.6020387,15.7100069 20.5672042,15.7327428 20.5478404,15.8244946 C20.1789027,17.5733375 19.8052522,19.3212709 19.4331385,21.0696086 C19.4258642,21.1037629 19.4260691,21.1393319 19.4212538,21.1902602 M25.4370582,14.8657484 C25.6545686,14.9094012 25.8548666,14.9439598 26.0521934,14.990543 C26.5706117,15.1130136 27.0619822,15.2992456 27.4811224,15.6337154 C28.0842704,16.1150085 28.4065914,16.7431247 28.4002392,17.5076561 C28.3809778,19.8293418 27.2138193,21.4057962 25.1098195,22.3501936 C24.3053489,22.7111381 23.4503685,22.8961576 22.5706965,22.9633547 C22.2443798,22.9882126 21.9161165,22.997509 21.5887753,22.9981153 C19.7896792,23.0012478 17.9906855,22.99953 16.1915894,22.99953 L16,22.99953 C16.0430308,22.7889453 16.0809388,22.5971557 16.1215107,22.4057702 C16.5693381,20.2929514 17.0173704,18.1801325 17.4655052,16.0674147 C17.903497,14.0019875 18.3415912,11.9366614 18.7799928,9.87123421 C18.9047821,9.28293103 19.0325425,8.69503204 19.1530286,8.10581942 C19.1699336,8.02295981 19.202514,8.00467007 19.2811989,8.00467007 C21.4490277,8.00648894 23.6171639,7.98698662 25.784583,8.01639168 C26.5568829,8.0269007 27.2954754,8.2549667 27.9381707,8.70867356 C28.5468512,9.13812882 28.8679427,9.73714312 28.9649669,10.4597395 C29.0273615,10.9246627 29.0052314,11.389788 28.9080023,11.8462232 C28.8184573,12.266382 28.6040207,12.6369261 28.3573109,12.9869574 C27.8495478,13.7077349 27.141794,14.1760938 26.3397824,14.5191527 C26.0515787,14.6425327 25.7541541,14.7446925 25.4370582,14.8657484" id="Fill-5"></path>
                    <path d="M2.20986151,8 L5.27003631,8 C5.24868985,8.12101699 5.23064332,8.235246 5.20836876,8.34862652 C4.64304851,11.2338371 4.07824388,14.1192597 3.51075806,17.0042582 C3.36494215,17.7457392 3.25985982,18.4911444 3.28337186,19.2501257 C3.29646848,19.6712987 3.35225802,20.0857899 3.49250529,20.4846899 C3.78939638,21.3302179 4.38575665,21.8069676 5.2395119,21.9145147 C6.88927353,22.1226088 8.60090896,21.417295 9.52231289,19.593237 C9.89273068,18.8600288 10.1082577,18.0804715 10.270264,17.2754593 C10.7167865,15.0568498 11.1814587,12.8421646 11.6392217,10.6259945 C11.8161807,9.76858751 11.9940679,8.91128659 12.1717488,8.05387961 C12.1749456,8.03797027 12.1802049,8.02248519 12.1857735,8.00201518 L15,8.00201518 C14.9607101,8.19504842 14.9237921,8.38362705 14.8840898,8.5715693 C14.1509884,12.0477585 13.4176808,15.5240538 12.6830326,18.9999249 C12.6673579,19.0737442 12.6394116,19.1456544 12.6099184,19.2152312 C12.1839173,20.2197465 11.6255063,21.1334725 10.8582713,21.9026357 C9.81559468,22.948091 8.55697856,23.5529638 7.13614998,23.8221498 C6.1154386,24.0153951 5.08709612,24.0427592 4.0558662,23.9447577 C3.44259376,23.8864235 2.84231482,23.7605276 2.26895098,23.5185997 C1.06313384,23.0098192 0.362516226,22.0813506 0.120486563,20.7760428 C-0.00872654631,20.079108 -0.0512132191,19.370082 0.0792373661,18.6756927 C0.41572769,16.8836654 0.7875892,15.0987443 1.14542598,13.3109596 C1.48820681,11.5978426 1.83088451,9.88472564 2.17366534,8.17160867 C2.18439013,8.11794119 2.19624928,8.06448583 2.20986151,8" id="Fill-7"></path>
                </g>
            </g>
        </g>
    </g>
</svg>