<?xml version="1.0" encoding="UTF-8"?>
<svg width="90px" height="90px" viewBox="0 0 90 90" version="1.1" xmlns="http://www.w3.org/2000/svg" xmlns:xlink="http://www.w3.org/1999/xlink">
    <!-- Generator: Sketch 52.2 (67145) - http://www.bohemiancoding.com/sketch -->
    <title>uba foundation-red</title>
    <desc>Created with Sketch.</desc>
    <g id="uba-foundation-red" stroke="none" stroke-width="1" fill="none" fill-rule="evenodd">
        <g id="uba-foundation-(1)" transform="translate(11.000000, 16.000000)">
            <path d="M59.6,27.5 C59.6,42.6 47.3,54.9 32.2,54.9 C17.1,54.9 4.8,42.6 4.8,27.5 C4.8,12.4 17.1,0.1 32.2,0.1 C47.3,0.1 59.6,12.3 59.6,27.5" id="Fill-1" fill-opacity="0.1" fill="#D51709"></path>
            <polygon id="Fill-3" fill="#BEC0CC" points="63.4 13.9 65.3 13.9 65.3 8 63.4 8"></polygon>
            <polygon id="Fill-5" fill="#BEC0CC" points="61.4 11.9 67.4 11.9 67.4 9.9 61.4 9.9"></polygon>
            <polygon id="Fill-6" fill="#BEC0CC" points="21.6 57.8 23.5 57.8 23.5 51.9 21.6 51.9"></polygon>
            <polygon id="Fill-7" fill="#BEC0CC" points="19.6 55.8 25.6 55.8 25.6 53.8 19.6 53.8"></polygon>
            <polygon id="Fill-8" fill="#D51709" points="52.5 49.4 51.5 49.4 51.5 44.7 34.2 44.7 34.2 49.4 33.2 49.4 33.2 43.7 52.5 43.7"></polygon>
            <path d="M36.5,43.4 L35.5,43.4 L35.5,35.6 C35.6,35.2 38.2,26.9 44.8,26.2 C48.8,25.8 49.8,24 50.5,22.8 C50.9,22.1 51.3,21.5 52.1,21.5 C53.8,21.5 55.8,22.6 56.4,24.3 C56.9,25.9 51.3,30.9 48.9,33 L48.3,32.2 C51.9,29.2 55.6,25.4 55.5,24.6 C55.1,23.3 53.4,22.5 52.1,22.5 C51.9,22.5 51.7,22.7 51.4,23.3 C50.7,24.6 49.4,26.7 45,27.1 C39.4,27.7 36.9,34.9 36.6,35.7 L36.6,43.4 L36.5,43.4 Z" id="Fill-9" fill="#D51709"></path>
            <path d="M49.8,44.2 L48.8,44.2 L48.8,41 L59.3,31 L59.3,9.8 C57.7,10.4 55.1,11.7 55.1,13.1 C55.1,13.9 55.2,14.8 55.2,15.5 C55.3,17 55.4,18.1 55,18.8 C54.6,19.7 52.6,22.1 52.4,22.4 L51.6,21.8 C52.2,21.1 53.8,19 54.1,18.4 C54.3,18 54.2,16.8 54.2,15.6 C54.2,14.8 54.1,14 54.1,13.1 C54.1,10.5 59.1,8.8 59.7,8.6 L60.4,8.4 L60.4,31.5 L49.9,41.5 L49.9,44.2 L49.8,44.2 Z" id="Fill-10" fill="#D51709"></path>
            <polygon id="Fill-11" fill="#D51709" points="37 49.1 39.5 49.1 39.5 48.1 37 48.1"></polygon>
            <polygon id="Fill-12" fill="#D51709" points="27.2 49.4 26.2 49.4 26.2 44.7 8.8 44.7 8.8 49.4 7.8 49.4 7.8 43.7 27.2 43.7"></polygon>
            <path d="M24.8,43.4 L23.8,43.4 L23.8,35.8 C23.5,35 21,27.8 15.4,27.2 C11,26.8 9.8,24.6 9,23.4 C8.7,22.8 8.5,22.6 8.3,22.6 C7,22.6 5.4,23.5 4.9,24.8 C4.8,25.6 8.5,29.4 12.1,32.4 L11.5,33.2 C9.1,31 3.5,26 4,24.4 C4.6,22.6 6.7,21.6 8.3,21.6 C9.1,21.6 9.5,22.2 9.9,22.9 C10.6,24.1 11.6,25.8 15.6,26.3 C22.2,27 24.8,35.3 24.9,35.7 L24.9,35.8 L24.9,43.4 L24.8,43.4 Z" id="Fill-13" fill="#D51709"></path>
            <path d="M11.5,44.2 L10.5,44.2 L10.5,41.4 L0,31.4 L0,8.4 L0.7,8.6 C1.3,8.8 6.3,10.5 6.3,13.1 C6.3,14 6.2,14.8 6.2,15.6 C6.1,16.8 6,18 6.3,18.4 C6.5,19 8.1,21 8.7,21.7 L7.9,22.3 C7.7,22 5.7,19.6 5.3,18.7 C5,18.1 5.1,17 5.1,15.5 C5.1,14.8 5.2,13.9 5.2,13.1 C5.2,11.7 2.5,10.4 1,9.8 L1,31 L11.5,41 L11.5,44.2 Z" id="Fill-14" fill="#D51709"></path>
            <polygon id="Fill-15" fill="#D51709" points="20.8 49.1 23.3 49.1 23.3 48.1 20.8 48.1"></polygon>
            <path d="M43.7,14.8 C42.9,19 39.9,21.5 36.7,23.9 C35,25.2 33.3,26.4 31.6,27.6 C31.3,27.8 30.8,27.9 30.6,27.7 C27.7,25.6 24.8,23.5 22.1,21.2 C20.3,19.7 19.1,17.9 18.6,15.6 C17.5,11.2 21,6.8 25.5,6.9 C27.6,7 29.1,8.1 30.4,9.7 C30.6,10 30.8,10.3 31.1,10.6 C31.5,10.1 31.8,9.6 32.2,9.2 C35.5,5.4 40.5,6.7 42.6,10.1 C43.2,11 43.4,12.2 43.8,13.2 L43.8,14.8 L43.7,14.8 Z" id="Fill-16" fill="#FFFFFF"></path>
            <path d="M31.1,27.4 C34,25.1 36.9,22.9 39.7,20.5 C40.7,19.6 41.5,18.5 42.1,17.3 C43.5,14.9 43.4,12.5 41.9,10.2 C39.8,7 35.8,6.6 33.2,9.3 C32.7,9.8 32.4,10.4 32,10.9 C31.4,11.7 30.6,11.7 30,10.9 C29.7,10.5 29.5,10.1 29.2,9.8 C28.2,8.6 26.9,7.7 25.2,7.6 C21.5,7.4 18.3,11.1 18.9,14.8 C19.2,16.6 20,18.1 21.2,19.4 C24,22.7 27.7,24.8 31.1,27.4 Z M44.2,14.9 C43.4,19.3 40.3,21.9 37,24.4 C35.2,25.7 33.5,27 31.7,28.2 C31.4,28.4 30.8,28.5 30.6,28.3 C27.6,26.1 24.6,23.9 21.8,21.5 C20,20 18.7,18 18.1,15.7 C17,11.1 20.6,6.5 25.3,6.6 C27.5,6.7 29.1,7.9 30.4,9.5 C30.6,9.8 30.9,10.1 31.1,10.5 C31.5,10 31.9,9.5 32.3,9 C35.7,5 40.9,6.4 43.1,9.9 C43.7,10.9 43.9,12 44.4,13.1 L44.4,14.9 L44.2,14.9 Z" id="Fill-16_1_" fill="#D51709" fill-rule="nonzero"></path>
            <path d="M20.6,14.5 C20.8,12.4 22.1,10.7 24.1,10.1 C24.5,10 24.9,9.8 25.1,10.4 C25.2,10.9 24.9,11 24.4,11.1 C22.9,11.5 21.9,12.8 21.8,14.4 C21.8,14.8 22,15.4 21.3,15.4 C21,15.4 20.8,14.8 20.6,14.5" id="Fill-19" fill="#D51709"></path>
        </g>
    </g>
</svg>